<?xml version="1.0" standalone="no"?>
<!DOCTYPE svg PUBLIC "-//W3C//DTD SVG 20010904//EN"
 "http://www.w3.org/TR/2001/REC-SVG-20010904/DTD/svg10.dtd">
<svg version="1.0" xmlns="http://www.w3.org/2000/svg"
 width="303.000000pt" height="303.000000pt" viewBox="0 0 303.000000 303.000000"
 preserveAspectRatio="xMidYMid meet">
<metadata>
Created by potrace 1.14, written by Peter Selinger 2001-2017
</metadata>
<g transform="translate(0.000000,303.000000) scale(0.100000,-0.100000)"
fill="#000000" stroke="none">
<path d="M1498 3025 c-2 -2 -38 -5 -81 -6 -257 -7 -554 -112 -782 -274 -311
-222 -519 -542 -605 -930 -25 -109 -35 -370 -20 -475 4 -30 11 -75 15 -100 17
-117 79 -299 142 -419 32 -61 110 -189 123 -201 3 -3 23 -27 45 -55 59 -74
147 -165 159 -165 6 1 30 58 52 128 121 372 558 1693 572 1729 19 49 54 91 97
119 26 17 54 20 261 24 128 3 230 2 227 -2 -2 -5 -10 -8 -18 -8 -19 0 -113
-88 -142 -133 -38 -60 -102 -245 -163 -467 -10 -36 -88 -310 -175 -610 -86
-300 -159 -554 -162 -565 -3 -11 -34 -121 -69 -244 -35 -123 -64 -229 -64
-236 0 -18 224 -90 340 -110 102 -18 329 -24 446 -12 206 22 445 109 637 234
214 138 399 342 521 576 72 137 137 338 152 472 3 33 8 69 10 80 6 27 5 244 0
275 -2 14 -7 48 -10 77 -34 300 -201 633 -434 861 -71 69 -223 192 -238 192
-4 0 -15 6 -23 14 -26 23 -180 101 -266 133 -137 52 -271 81 -415 89 -52 3
-103 7 -112 8 -9 2 -18 2 -20 1z m365 -827 c31 -128 172 -668 274 -1048 14
-52 27 -102 29 -110 32 -136 64 -203 111 -239 l28 -20 -174 -1 c-157 0 -179 2
-218 21 -26 13 -50 34 -60 53 -26 50 -256 851 -288 1003 -8 39 24 164 61 238
47 93 129 159 206 164 12 1 20 -15 31 -61z m655 -507 c22 -26 37 -34 74 -38
41 -5 58 0 125 33 148 72 138 76 83 -39 -26 -56 -57 -124 -70 -152 -13 -27
-43 -93 -67 -145 -25 -52 -56 -120 -70 -150 -14 -30 -48 -102 -75 -160 -28
-58 -54 -115 -58 -127 -5 -12 -20 -29 -34 -38 -38 -25 -78 0 -113 71 -21 40
-84 243 -85 273 -1 9 15 50 34 91 213 450 222 468 226 439 1 -14 15 -41 30
-58z"/>
</g>
</svg>
